<?xml version="1.0" standalone="no"?>
<!DOCTYPE svg PUBLIC "-//W3C//DTD SVG 20010904//EN"
 "http://www.w3.org/TR/2001/REC-SVG-20010904/DTD/svg10.dtd">
<svg version="1.0" xmlns="http://www.w3.org/2000/svg"
 width="980.000000pt" height="980.000000pt" viewBox="0 0 980.000000 980.000000"
 preserveAspectRatio="xMidYMid meet">
<metadata>
Created by potrace 1.16, written by Peter Selinger 2001-2019
</metadata>
<g transform="translate(0.000000,980.000000) scale(0.100000,-0.100000)"
fill="#ed2d1f" stroke="none">
<path d="M4665 9793 c-693 -40 -1316 -200 -1915 -491 -540 -263 -940 -556
-1395 -1023 -344 -353 -590 -700 -825 -1164 -268 -527 -424 -1026 -502 -1607
-20 -146 -22 -207 -23 -593 0 -285 4 -469 13 -545 164 -1473 960 -2769 2203
-3583 464 -304 956 -517 1518 -656 374 -93 575 -118 1001 -127 577 -13 880 18
1352 137 655 165 1269 462 1788 863 419 324 775 703 1069 1136 740 1091 1012
2420 756 3700 -161 801 -527 1574 -1036 2185 -153 184 -509 532 -714 700 -460
377 -1093 704 -1701 879 -512 147 -1104 218 -1589 189z m495 -623 c292 -16
500 -47 774 -116 630 -158 1184 -441 1706 -872 150 -124 430 -405 556 -557
459 -555 759 -1184 908 -1900 94 -456 99 -1122 11 -1598 -110 -597 -330 -1132
-677 -1643 -295 -435 -697 -837 -1132 -1132 -626 -424 -1325 -672 -2071 -733
-207 -17 -679 -6 -870 20 -966 132 -1811 544 -2490 1216 -729 721 -1167 1665
-1255 2700 -13 154 -13 526 0 680 101 1197 674 2268 1615 3020 646 517 1480
845 2330 918 89 8 431 6 595 -3z"/>
<path d="M3610 7785 l0 -345 -680 0 -680 0 0 -305 0 -305 154 0 153 0 5 -2268
5 -2268 43 -81 c94 -177 193 -276 362 -363 l96 -50 1827 0 1827 0 96 50 c171
87 267 184 362 363 l43 81 5 2268 5 2268 153 0 154 0 0 305 0 305 -690 0 -690
0 0 345 0 345 -1275 0 -1275 0 0 -345z m3006 -3112 c-3 -1187 -8 -2177 -11
-2200 -5 -30 -13 -43 -28 -48 -67 -20 -3297 -20 -3364 0 -16 5 -23 17 -27 53
-4 26 -9 1016 -12 2200 l-6 2152 1727 0 1727 0 -6 -2157z"/>
<path d="M3730 4610 l0 -1440 305 0 305 0 0 488 c0 268 -3 916 -7 1440 l-6
952 -299 0 -298 0 0 -1440z"/>
<path d="M4604 6028 c-4 -13 -9 -661 -11 -1440 l-4 -1418 306 0 305 0 0 1440
0 1440 -294 0 -294 0 -8 -22z"/>
<path d="M5457 6043 c-4 -3 -7 -651 -7 -1440 l0 -1433 305 0 305 0 0 1440 0
1440 -298 0 c-164 0 -302 -3 -305 -7z"/>
</g>
</svg>
