<?xml version="1.0" standalone="no"?>
<!DOCTYPE svg PUBLIC "-//W3C//DTD SVG 20010904//EN"
 "http://www.w3.org/TR/2001/REC-SVG-20010904/DTD/svg10.dtd">
<svg version="1.0" xmlns="http://www.w3.org/2000/svg"
 width="840.000000pt" height="841.000000pt" viewBox="0 0 840.000000 841.000000"
 preserveAspectRatio="xMidYMid meet">
<metadata>
Created by potrace 1.16, written by Peter Selinger 2001-2019
</metadata>
<g transform="translate(0.000000,841.000000) scale(0.100000,-0.100000)"
fill="#e9f230" stroke="none" stroke-width="10%">
<path d="M4140 7987 c-19 -6 -57 -33 -83 -59 -42 -42 -79 -111 -292 -541 -861
-1744 -872 -1766 -897 -1772 -12 -3 -566 -84 -1230 -180 -757 -110 -1228 -183
-1264 -195 -76 -27 -122 -63 -146 -118 -35 -78 -8 -174 76 -269 22 -25 430
-425 908 -890 793 -772 869 -848 863 -872 -3 -14 -98 -564 -211 -1221 -230
-1334 -226 -1303 -168 -1396 38 -61 85 -86 162 -85 97 0 -22 -59 1602 796 678
357 737 386 763 376 16 -5 315 -160 665 -345 350 -184 835 -438 1077 -566 242
-127 459 -237 483 -245 56 -19 155 -19 192 0 33 17 71 64 91 115 30 75 17 174
-120 965 -73 418 -159 915 -191 1105 -33 190 -67 386 -76 435 l-15 91 203 200
c112 110 471 461 798 779 766 745 799 779 835 845 55 103 35 205 -52 262 -65
43 -127 56 -513 113 -579 84 -1307 190 -1715 249 -203 29 -371 57 -372 62 -2
5 -199 405 -439 889 -240 484 -490 989 -555 1123 -97 199 -127 251 -166 290
-67 66 -132 84 -213 59z"/>
</g>
</svg>
